<?xml version="1.0" encoding="UTF-8"?>
<svg width="205" aria-label="purexml logo" role="img" viewBox="259 249 505 526" xmlns="http://www.w3.org/2000/svg"><title>purexml</title><path transform="translate(506,274)" d="m0 0v337c-4-1.6-7.3-3.2-11-5.4-0.57-0.33-1.1-0.67-1.7-1-1.9-1.1-3.7-2.2-5.6-3.3-1.3-0.77-2.6-1.5-3.9-2.3-11-6.6-22-13-34-20-2.9-1.7-5.8-3.5-8.7-5.2-2.5-1.5-5-3-7.5-4.5-1.7-1.1-3.5-2.1-5.2-3.1-29-18-51-39-60-73-2-9.1-3.2-18-3.1-27 0.0045-0.77 9e-3 -1.5 0.014-2.3 0.012-1.9 0.03-3.8 0.049-5.7 4.1 1.6 6.9 4.6 10 7.6 4.2 3.9 8.4 7.7 13 11 7.6 6.2 11 11 15 20 8 21 25 33 44 43 1.8 1.1 3.7 2.1 5.5 3.2 1.7 0.96 3.3 1.9 5 2.9 5.7 3.3 11 6.8 17 10l-1-240c-14 4.6-27 9.2-41 14-34 11-34 11-36 11 0.0044 0.64 0.0089 1.3 0.013 1.9 0.044 6.7 0.074 13 0.096 20 0.01 2.5 0.024 5 0.041 7.4 0.024 3.6 0.036 7.1 0.044 11 0.01 1.1 0.021 2.2 0.031 3.4 0.0017 12 0.0017 12-3.7 17-0.29 0.27-0.29 0.27-1.8 1.6-0.66 0.61-1.3 1.2-2 1.8-0.7 0.63-1.4 1.3-2.1 1.9-0.36 0.33-0.36 0.33-2.2 2-1.4 1.3-2.9 2.6-4.3 3.9-1.8 1.7-3.7 3.3-5.5 5-7.3 6.8-7.3 6.8-9.6 6.8v-105c5.8-2.3 11-4.6 17-6.5 0.33-0.11 0.33-0.11 2-0.67 2.2-0.72 4.4-1.4 6.6-2.2 1.6-0.52 3.2-1 4.7-1.6 2.5-0.83 5-1.7 7.5-2.5 8.9-3 18-5.9 27-8.9 4.6-1.5 9.2-3.1 14-4.6 5.6-1.9 11-3.8 17-5.6 4.7-1.6 9.3-3.1 14-4.7 1.7-0.58 3.5-1.2 5.2-1.8 2.4-0.81 4.8-1.6 7.3-2.4 0.7-0.24 1.4-0.47 2.1-0.71 12-3.9 12-3.9 16-3.9z" fill="#7C3AED"/><path transform="translate(518,274)" d="m0 0c10 2.3 10 2.3 15 3.9 1.1 0.36 2.2 0.73 3.3 1.1 1.2 0.39 2.3 0.79 3.5 1.2 1.3 0.42 2.5 0.84 3.8 1.3 3.4 1.1 6.8 2.3 10 3.4 3.6 1.2 7.2 2.4 11 3.6 6 2 12 4 18 6 7.7 2.6 15 5.2 23 7.7 6.6 2.2 13 4.4 20 6.7 2.1 0.71 4.3 1.4 6.4 2.1 4 1.3 7.9 2.7 12 4 1.2 0.4 2.4 0.79 3.6 1.2 1.1 0.36 2.2 0.72 3.3 1.1 0.94 0.31 1.9 0.63 2.8 0.95 2.2 0.79 2.2 0.79 4.2 1.8v105c-3.3-1.7-5-2.8-7.6-5.2-0.67-0.64-1.3-1.3-2-1.9-0.35-0.33-0.35-0.33-2.1-2-4.7-4.5-9.5-9-14-13-0.58-0.51-1.2-1-1.8-1.5-0.52-0.41-1-0.83-1.6-1.3-2-2.4-1.8-4.1-1.8-7.2 2.3e-4 -1.1 4.5e-4 -2.2 6.9e-4 -3.4 0.015-1.2 0.031-2.4 0.047-3.7 0.0042-1.2 0.0085-2.5 0.013-3.8 0.014-3.3 0.041-6.6 0.074-9.9 0.031-3.4 0.044-6.7 0.06-10 0.033-6.6 0.085-13 0.15-20-3.6-0.99-7.3-2-11-3-22-7.3-44-15-66-22l-1 239c3.5-1.4 6.4-2.7 9.6-4.6 0.88-0.52 1.8-1 2.7-1.6 0.93-0.56 1.9-1.1 2.8-1.7 0.97-0.58 1.9-1.2 2.9-1.7 3-1.8 6-3.6 8.9-5.4 0.45-0.27 0.45-0.27 2.7-1.6 9.5-5.7 19-11 26-19 0.69-0.68 1.4-1.4 2.1-2.1 7.1-7.4 13-17 16-26 2.6-8.1 10-13 16-18 1.4-1.3 2.9-2.5 4.3-3.8 0.6-0.51 1.2-1 1.8-1.6 1.4-1.3 2.9-2.5 4.3-3.8 0.81-0.74 1.6-1.5 2.5-2.2 0.74-0.68 1.5-1.4 2.2-2.1 1.9-1.5 1.9-1.5 3.9-1.5 1.1 30-7.8 59-28 82-15 16-33 25-51 36-6.2 3.6-12 7.3-19 11-8 4.8-16 9.7-24 14-0.89 0.53-1.8 1.1-2.7 1.6-0.84 0.5-1.7 0.99-2.5 1.5-0.36 0.21-0.36 0.21-2.2 1.3-3.4 1.9-7 3.6-11 5.4v-337z" fill="#2BB8AC"/><path transform="translate(441,372)" d="m0 0c5.3 4.3 10 9.1 15 14 3.9 3.9 3.9 3.9 6.1 5.1-0.58 3.2-1.5 4.9-3.8 7.2-0.3 0.3-0.3 0.3-1.8 1.8-0.65 0.64-1.3 1.3-2 1.9-0.67 0.67-1.3 1.3-2 2-1.4 1.4-2.8 2.8-4.3 4.2-2.2 2.1-4.3 4.3-6.4 6.4-1.4 1.4-2.8 2.7-4.1 4.1-0.63 0.63-1.3 1.3-1.9 1.9-3.8 3.8-7.8 7.4-12 11-1.9 1.7-3.8 3.4-5.6 5.2-0.57 0.55-1.1 1.1-1.7 1.7-1.3 1.6-1.3 1.6-2.3 4.6 0.27 0.1 0.27 0.1 1.6 0.63 3.3 1.9 5.8 4.5 8.4 7.2 0.57 0.58 1.1 1.2 1.7 1.8 1.8 1.9 3.7 3.7 5.5 5.6 14 15 14 15 22 21 1.7 1.5 3.4 3.1 5.1 4.7 0.77 0.73 1.5 1.5 2.3 2.2 1.6 2.1 1.6 2.1 1.5 4-1.2 2.9-2.9 4.5-5.1 6.7-0.85 0.84-1.7 1.7-2.6 2.6-0.9 0.87-1.8 1.7-2.7 2.6-0.9 0.89-1.8 1.8-2.7 2.7-2.2 2.2-4.5 4.4-6.7 6.6-4.9-4.1-9.5-8.4-14-13-4.3-4.3-8.6-8.5-13-12-3-2.7-5.8-5.6-8.6-8.4-2-2-4.1-3.8-6.2-5.7-3.8-3.2-7.3-6.8-11-10-2.7-2.6-5.5-5.1-8.3-7.5-2.6-2.3-5-4.7-7.4-7.2-1.5-1.5-1.5-1.5-4.5-3.5 0.4-4.4 3.4-6.5 6.6-9.2 1.1-0.98 2.2-2 3.3-2.9 0.54-0.48 1.1-0.96 1.6-1.4 2-1.8 3.9-3.7 5.8-5.6 3.1-3.2 6.4-6.1 9.8-9 2.7-2.4 5.2-5 7.8-7.6 1.9-1.9 3.9-3.6 6-5.4 4.5-3.9 8.6-8.1 13-12 4.8-4.9 9.6-9.6 15-14 1.3-1.1 2.5-2.2 3.6-3.4z" fill="#7C3AED"/><path transform="translate(581,372)" d="m0 0c3.1 1.4 5.2 3 7.6 5.4 0.67 0.68 1.3 1.4 2 2.1 0.35 0.36 0.35 0.36 2.1 2.2 4.6 4.8 9.3 9.3 14 14 2.8 2.4 5.3 5 7.9 7.6 3.9 4 7.9 7.7 12 11 2.8 2.4 5.3 5.1 7.9 7.7 1.9 1.9 3.8 3.6 5.9 5.3 5 4.3 9.5 8.9 14 14-5.9 7-12 13-19 19-1.9 1.7-3.7 3.4-5.5 5.2-2.4 2.4-4.9 4.7-7.4 6.9-3.4 3-6.7 6.1-9.8 9.4-1.9 1.9-3.9 3.7-6 5.4-4.4 3.8-8.5 7.9-13 12-1.4 1.4-2.8 2.8-4.1 4.2-0.3 0.31-0.3 0.31-1.8 1.8-1.8 1.7-3.7 3.2-5.8 4.7-3.5-1.5-5.7-3.5-8.3-6.1-0.8-0.81-1.6-1.6-2.4-2.4-0.82-0.84-1.6-1.7-2.5-2.6-0.84-0.85-1.7-1.7-2.5-2.6-2.1-2.1-4.1-4.2-6.2-6.3 3.5-4.1 7-8.2 11-12 0.39-0.39 0.39-0.39 2.4-2.4 2.1-2 4.1-3.8 6.3-5.7 5.9-5.2 11-11 17-16 1.1-1.1 2.2-2.2 3.4-3.4 2.7-2.7 5.4-5.5 8.1-8.2-1.3-2.8-2.6-4.8-4.8-7-0.54-0.54-1.1-1.1-1.6-1.6-0.57-0.55-1.1-1.1-1.7-1.7-0.54-0.54-1.1-1.1-1.6-1.6-2.9-2.9-5.9-5.6-9-8.3-5.8-5-11-11-16-16-1.4-1.4-2.8-2.8-4.2-4.2-0.81-0.82-1.6-1.6-2.5-2.5-2.1-2-2.1-2-5.1-4 0.85-4.6 3.6-6.9 6.9-10 1.1-1 2.2-2.1 3.2-3.1 0.51-0.49 1-0.98 1.5-1.5 1.3-1.4 1.3-1.4 3.1-3.8 0.41-0.54 0.82-1.1 1.2-1.6h2l1-3z" fill="#2BB8AC"/><path transform="translate(690 672)" d="m0 0c5.7 5.1 8.1 11 8.7 19 0.058 2.5 0.053 5.1 0.023 7.6-0.0028 0.92-0.0057 1.8-0.0086 2.8-0.011 2.9-0.036 5.8-0.062 8.7-0.01 2-0.019 4-0.027 6-0.022 4.8-0.056 9.7-0.098 15h-16c-0.015-1.2-0.029-2.3-0.044-3.5-0.058-4.3-0.14-8.6-0.22-13-0.033-1.9-0.061-3.7-0.084-5.6-0.034-2.7-0.086-5.3-0.14-8-0.0064-0.82-0.013-1.6-0.019-2.5-0.12-4.9-0.77-8.4-3.5-13-3.7-1.9-7.9-1.5-12-1-3.1 1.9-4.5 3.4-5.6 6.9-1.7 8-1.8 16-2 24-0.038 1.4-0.077 2.9-0.12 4.3-0.096 3.5-0.18 7-0.26 11h-15c-0.015-1.2-0.029-2.3-0.044-3.5-0.058-4.3-0.14-8.6-0.22-13-0.033-1.9-0.061-3.7-0.084-5.6-0.034-2.7-0.086-5.3-0.14-8-0.0064-0.82-0.013-1.6-0.019-2.5-0.12-4.9-0.77-8.4-3.5-13-3.7-1.9-8-1.4-12-1-3.7 1.9-4.7 3.2-6.1 7.1-0.97 4.2-1.2 8-1.3 12-0.019 0.77-0.039 1.5-0.059 2.3-0.059 2.4-0.11 4.8-0.15 7.3-0.038 1.7-0.077 3.3-0.12 5-0.097 4-0.18 8.1-0.26 12h-15v-60h15l1 5c0.47-0.35 0.94-0.7 1.4-1.1 0.62-0.46 1.2-0.91 1.9-1.4 0.31-0.23 0.31-0.23 1.9-1.4 5.7-3.7 13-2.8 20-2.2 4.9 1.8 8.6 5.1 12 9l0.62-1.8c2.6-4.3 6.7-6.3 12-7.6 7-1.3 14-0.046 20 3.1z" fill="#2BB8AC"/><path transform="translate(336,674)" d="m0 0c6.9 5.8 10 13 11 22 0.37 10-2.2 19-8.6 27-6.5 6.3-14 8.1-23 8.1-5.7-0.69-11-3.3-15-7.4l-1 27h-16v-81h16l1 5 1.9-1.8c11-7.5 23-6.3 33 0.81zm-34 15c-2.9 6-2.4 13-0.38 19 2.9 4 6.1 7 11 8.6 5.3 0.44 9 0.28 13-2.7 3.9-3.3 5.3-6.3 5.9-11 0.17-5.7 0.095-10-3.3-15-4-3.9-7.9-5.5-13-6.4-5.6 0.8-9.5 3-13 7.4z" fill="#7C3AED"/><path transform="translate(520 674)" d="m0 0c6.9 5.7 11 14 12 22 0.51 6.3 0.51 6.3-1.3 8.7-2.2 1.6-3.3 1.7-5.9 1.7-0.84-2.3e-4 -1.7-4.5e-4 -2.5-6.9e-4 -0.9-0.015-1.8-0.031-2.7-0.047-0.93-0.0042-1.9-0.0085-2.8-0.013-3-0.017-5.9-0.054-8.9-0.093-2-0.015-4-0.029-6-0.041-4.9-0.033-9.9-0.085-15-0.15 0.43 1.1 0.86 2.2 1.3 3.3 0.24 0.62 0.49 1.2 0.74 1.9 1.8 3.3 4.6 4.7 8 5.8 4.7 0.65 8.6 0.63 13-1.4 2-1.6 2-1.6 4-3.6 2.7-0.15 5.4-0.19 8.1-0.12 0.75 9e-3 1.5 0.018 2.3 0.027 1.9 0.024 3.7 0.059 5.6 0.098-2 6.5-4.6 11-10 15-9.3 4.8-18 6.1-29 3.4-7.6-2.6-14-7.8-18-15-4-8.7-4.4-18-1.4-27 3.4-8.3 9.3-14 17-18 10-4 22-2.7 31 3.6zm-30 12c-2.5 2.9-3.6 4.8-4.5 8.6h29c-1-7-1-7-3.5-9.9-6.5-4.7-15-4.2-21 1.3z" fill="#7C3AED"/><path transform="translate(358,670)" d="m0 0h16c0.015 1.2 0.029 2.3 0.044 3.5 0.058 4.3 0.14 8.6 0.22 13 0.033 1.9 0.061 3.7 0.084 5.6 0.034 2.7 0.086 5.3 0.14 8 0.0064 0.82 0.013 1.6 0.019 2.5 0.12 4.9 0.77 8.4 3.5 13 3.5 1.7 7.2 1.4 11 1 4.3-1.8 6-3.9 8-8 0.46-2.9 0.49-5.8 0.51-8.8 0.018-0.84 0.036-1.7 0.054-2.5 0.054-2.7 0.088-5.3 0.12-8 0.033-1.8 0.068-3.6 0.1-5.4 0.085-4.4 0.15-8.8 0.21-13h16v60h-14l-2-6c-0.6 0.42-1.2 0.84-1.8 1.3-0.4 0.27-0.4 0.27-2.4 1.7-0.79 0.55-1.6 1.1-2.4 1.7-5.3 3.2-11 3.1-17 2.4-5.1-1.7-8.9-3.8-12-7.9-3.3-6.9-3.8-13-3.7-20 0.0028-0.94 0.0057-1.9 0.0086-2.9 0.011-3 0.036-6 0.062-9 0.01-2 0.019-4.1 0.027-6.1 0.022-5 0.056-10 0.098-15z" fill="#7C3AED"/><path transform="translate(535,740)" d="m0 0h205v9c-54 0.55-109 1.1-163 1.1-2.9 0.0016-5.9 0.0052-8.8 0.0092-4.6 0.0058-9.2 0.0061-14 0.0018-1.7-9.9e-4 -3.3-4.1e-4 -5 0.0018-2.2 0.0025-4.5-0.0012-6.7-0.0068-1.3-8e-4 -2.5-0.0016-3.8-0.0024-2.8-0.13-2.8-0.13-3.8-1.1v-9z" fill="#2BB8AC"/><path transform="translate(537,670)" d="m0 0c12-1.3 12-1.3 17 0 3.8 3.1 5.8 6.6 8 11 0.56 0.9 1.1 1.8 1.7 2.7 1.3 2.3 1.3 2.3 1.3 4.3h2c0.27-0.68 0.54-1.4 0.81-2.1 0.39-0.97 0.78-1.9 1.2-2.9 0.43-1.1 0.87-2.2 1.3-3.3 2-4.1 3.3-6.5 6.7-9.7 5.9-1.6 12-0.74 18 0-3.2 5.3-6.5 10-10 15-0.55 0.75-1.1 1.5-1.7 2.3-1.1 1.5-2.2 3-3.4 4.5-0.51 0.7-1 1.4-1.6 2.1-0.47 0.62-0.94 1.2-1.4 1.9-0.76 2-0.76 2-0.095 4.4 1.3 2.5 2.7 4.7 4.4 7 0.61 0.81 1.2 1.6 1.8 2.5 0.63 0.84 1.3 1.7 1.9 2.5 11 15 11 15 11 18-6 1.1-12 2.2-18 0-5.5-5.1-8.9-12-12-19-2.4 2.8-4.1 5.3-5.8 8.6-3.8 7.7-3.8 7.7-7.2 10-5.5 1.7-11 0.81-17 0 0.6-3 1.5-5 3.3-7.5 0.23-0.33 0.23-0.33 1.4-2 0.49-0.69 0.98-1.4 1.5-2.1 0.49-0.71 0.99-1.4 1.5-2.2 2.2-3.2 4.4-6.3 6.7-9.3 0.65-0.85 1.3-1.7 2-2.6 0.57-0.73 1.1-1.5 1.7-2.2 0.95-2.1 0.95-2.1 0.48-4.4-2.2-3.9-4.8-7.5-7.4-11-10-14-10-14-10-17z" fill="#2BB8AC"/><path transform="translate(713,647)" d="m0 0h16l1 67c6 2 6 2 10 2v13c-6.1 2.3-12 2.3-18 1-4.7-2.2-6.5-4.3-8.4-9.1-0.98-3.1-0.96-6.1-0.94-9.3-4.4e-4 -0.7-8.8e-4 -1.4-0.0013-2.1 0.0021-2.3 0.025-4.6 0.049-6.9 0.0056-1.6 0.0099-3.2 0.013-4.8 0.011-4.2 0.041-8.4 0.074-13 0.031-4.3 0.044-8.6 0.06-13 0.032-8.4 0.085-17 0.15-25z" fill="#2BB8AC"/><path transform="translate(466,669)" d="m0 0v14c-1.5 0.21-1.5 0.21-8.9 1.3-3.4 0.8-5.4 1.5-8.1 3.7-2.5 5.6-3.5 10-3.5 16-0.018 0.74-0.036 1.5-0.054 2.3-0.054 2.3-0.088 4.7-0.12 7-0.033 1.6-0.068 3.2-0.1 4.8-0.084 3.9-0.15 7.8-0.21 12-2.5 0.027-5 0.047-7.4 0.062-0.71 0.0084-1.4 0.017-2.1 0.025-1.8 0.0086-3.6-0.036-5.4-0.088-1-1-1-1-1.1-3.4 0.0022-1 0.0044-2.1 0.0067-3.2 7.6e-5 -1.2 1.5e-4 -2.4 2.3e-4 -3.6 0.0052-1.3 0.01-2.6 0.016-3.9 0.0014-1.3 0.0028-2.6 0.0043-4 0.0038-3.5 0.014-7 0.025-10 0.01-3.6 0.015-7.1 0.02-11 0.011-7 0.028-14 0.049-21h16l1 7 1.6-2.3c5.2-5.9 11-7.2 18-5.7z" fill="#7C3AED"/><path transform="translate(285,671)" d="m0 0h14l1 6h2v-2h2v3l4-3 2 1-2.4 3.1c-2.3 3.2-3.5 6.1-4.6 9.9l-1.6 2.4c-2 3.6-2.1 6.6-2.4 11h-3l-1-2 0.062 2.9c-0.062 3.1-0.062 3.1-1.1 5.1h-3l2 3.1c2.2 3.7 2.4 6.6 2 11l4-2v30h-14v-79z" fill="#7C3AED"/><path transform="translate(398,670)" d="m0 0h16v60h-14v-1h13l-1-6h-1l-1-6-0.75 3.9c-0.95 3.9-0.95 3.9-3.4 5.6-0.31 0.082-0.31 0.082-1.9 0.5l1-2.2c1.4-5.3 1.2-10 1-16h-3c-1.7 2.5-1.7 2.5-3 5l-1-3 1-2h-2v3l-2-1 1-3c0.15-2.9 0.26-5.7 0.32-8.6 0.021-0.84 0.042-1.7 0.063-2.5 0.065-2.7 0.12-5.4 0.18-8 0.043-1.8 0.087-3.6 0.13-5.5 0.11-4.5 0.21-8.9 0.31-13z" fill="#7C3AED"/><path transform="translate(284,670)" d="m0 0h16l1 5 1 2c-0.99 0.33-2 0.66-3 1v-7h-14v79h14v-30l-4 3-1-1 0.12-3.8c0.067-3.7-0.55-5.4-3.1-8.2v-2h3v-8l2-1 2 3 1-8h1c0.037 0.72 0.075 1.4 0.11 2.2 0.38 5.6 0.74 10 3.9 15l2.2 1.8c2.8 3.4 2.1 6.9 1.8 11-2 0.38-4 0.71-6 1l-1-1-1 27h-16v-81z" fill="#7C3AED"/><path transform="translate(330,692)" d="m0 0 3 2c0.26 3.2 0.26 3.2 0.12 6.9-0.21 6.8-0.21 6.8 0.88 10-1.2 2.7-2.9 4.9-5 7-2.8 0.94-2.8 0.94-5 1l2.1 1.8c0.64 0.74 1.3 1.5 1.9 2.2-0.25 2.2-0.25 2.2-1 4l3 1c-3.2 3.2-6.7 3.2-11 3.4-6.2-0.017-11-2.2-16-5.4 3-2 3-2 5-2l-0.62-3.4-0.38-3.6 2-2c0.99 0.33 2 0.66 3 1 6.4 0.53 9.8-0.12 15-4 2.9-4.6 3.3-8 3.2-13-0.027-1.2-0.054-2.5-0.082-3.8-0.017-0.47-0.017-0.47-0.11-2.9z" fill="#7C3AED"/><path transform="translate(367,321)" d="m0 0h1l1 23h2v2c0.99-0.33 2-0.66 3-1l2 2 4-2v-3-2c2.4-0.62 2.4-0.62 5-1l2 2-1 1c-0.78 6.6-1.2 13-1 20l-2 1v-4l-2-1v-3l-1-3h-2c-1.1 2.2-2.1 4.4-3 6.7-1 2.3-1 2.3-3 3.3l-4-1v63h-1v-103z" fill="#7C3AED"/><path transform="translate(333,672)" d="m0 0-1.9 1.3c-2.1 1.7-2.1 1.7-4.1 4.7-0.99 0.33-2 0.66-3 1-1.2 2.1-1.2 2.1-2 4l2.4 0.31c2.6 0.69 2.6 0.69 4.6 3.7-3 0-3 0-5.1-1.4-3.9-2.1-7.5-2.7-12-2.6-3.4 1.4-3.4 1.4-6 3h-2c0.5-4.4 2.1-6.7 5-10l-5 2v-3l-2-1c9.8-7.3 20-7.4 31-2z" fill="#7C3AED"/><path transform="translate(412,674)" d="m0 0h1v55h-13l0.19-3.7c0.021-3.9-0.81-6.1-3.2-9.3l-4 2 3-6h2v-3h2v4l4-6c0.99 0.33 2 0.66 3 1 0.027 2.1 0.046 4.2 0.062 6.2 0.012 1.2 0.023 2.3 0.035 3.5-0.08 2.6-0.31 4.7-1.1 7.2h2l0.38-3.9c0.21-2.2 0.21-2.2 0.62-4.1l2-1 1-42z" fill="#7C3AED"/><path transform="translate(536,741)" d="m0 0h203v1h-200c1 4 1 4 2 7h-5v-8z" fill="#2BB8AC"/><path transform="translate(329,673)" d="m0 0h5l1 5h2v3c0.99 0.33 2 0.66 3 1-1.7 3.6-3.5 6.9-6 10l-5-1-0.69-2.9c-1.3-3.1-1.3-3.1-3.9-4.5-0.78-0.21-1.6-0.41-2.4-0.62 0.81-2.4 0.81-2.4 2-5 0.99-0.33 2-0.66 3-1 1.2-2.1 1.2-2.1 2-4z" fill="#7C3AED"/><path transform="translate(430,671)" d="m0 0h7v1h-6c0.066 0.61 0.13 1.2 0.2 1.8 1 11 1.1 22 1.4 32 0.043 2 0.087 4 0.13 6.1 0.11 4.9 0.21 9.8 0.31 15 3 0.33 5.9 0.66 9 1v-7l2-1v9h-14v-58z" fill="#7C3AED"/><path transform="translate(559,714)" d="m0 0c2.1 0.39 2.1 0.39 4 1-5.5 11-5.5 11-10 15-5.5 1.8-11 0.88-17 0v-3h3l1-2h3v2c2.2 0.31 2.2 0.31 5 0 2.3-2.5 2.3-2.5 4-5l-2-1 2.2-1.2c2.8-1.8 2.8-1.8 4.8-4l1.9-1.8z" fill="#2BB8AC"/><path transform="translate(406,405)" d="m0 0 2 1c-3.3 6.7-7.1 12-12 17-0.65 0.65-1.3 1.3-2 2-3.3 3.2-6.4 6-11 8.2 1.6-4.3 4.5-6.3 8-9l-1-1-7 7-2-1c4.8-4.9 9.7-9.7 15-14 3.5-3.1 6.7-6.4 10-9.8z" fill="#7C3AED"/><path transform="translate(359,671)" d="m0 0h1l1 15 2-1v28l-4 1v-43z" fill="#7C3AED"/><path transform="translate(514,712)" d="m0 0h16c-2.3 6.8-2.3 6.8-4.9 9.8-0.49 0.57-0.98 1.1-1.5 1.7-1.8 1.6-3.4 2.6-5.6 3.5v-2h-4c1.5-3.8 3.8-5.5 7-8l1-3 5-1h-13v-1z" fill="#7C3AED"/><path transform="translate(606,671)" d="m0 0 2 1-1 55 9-1 2 3h-12v-58z" fill="#2BB8AC"/><path transform="translate(492,683)" d="m0 0c-1.7 3.3-3.3 6.7-5 10l28 1-1-6 3 2-1 5h-31v-5l-2-1c0.75-2.9 0.75-2.9 2-6 2.9-1.4 3.9-1 7 0z" fill="#7C3AED"/><path transform="translate(584,467)" d="m0 0c0.99 0.33 2 0.66 3 1-3.1 3.1-6.2 6.3-9.2 9.4-0.44 0.44-0.44 0.44-2.6 2.7-0.84 0.85-1.7 1.7-2.6 2.6-0.78 0.79-1.6 1.6-2.3 2.4-2 1.8-3.7 2.8-6.2 4l-2 2c0-3 0-3 1.3-4.6 0.58-0.57 1.2-1.1 1.8-1.7 0.65-0.64 1.3-1.3 2-1.9 0.68-0.66 1.4-1.3 2.1-2 0.66-0.65 1.3-1.3 2-2 2-1.9 3.9-3.8 5.9-5.7 0.64-0.61 1.3-1.2 2-1.9 0.31-0.28 0.31-0.28 1.9-1.7 0.27-0.25 0.27-0.25 1.6-1.5 0.51-0.31 1-0.62 1.5-0.94z" fill="#2BB8AC"/><path transform="translate(481,705)" d="m0 0h4v5h2c0 4 0 4-1.5 5.6l-1.5 1.4v3c-1.9-0.31-1.9-0.31-4-1-2.3-3.5-2.4-4.9-2-9 1.2-2.9 1.2-2.9 3-5zm1 3 1 5h1v-5h-2z" fill="#7C3AED"/><path transform="translate(326,669)" d="m0 0v1c-0.74 0.11-1.5 0.22-2.2 0.33-6.5 1-11 2.3-16 6.4-1.8 1.3-1.8 1.3-3.8 1.3v-3l-2-1c7.8-5.9 15-6.4 24-5z" fill="#7C3AED"/><path transform="translate(364,723)" d="m0 0 3.3 0.56c3.7 0.44 3.7 0.44 6.7-0.56l1 7c2-0.33 4-0.66 6-1v-1l2.3 0.062c2.7-0.062 2.7-0.062 5.7-1.1l2 2c-6.4 2.8-13 3.4-20 0.88-2.4-1.2-4.8-2.5-7.1-3.9v-3z" fill="#7C3AED"/><path transform="translate(645,693)" d="m0 0h1c0.8 11 1.1 23 1 34 0.63-0.023 1.3-0.046 1.9-0.07 0.82-0.018 1.6-0.036 2.5-0.055 0.81-0.023 1.6-0.046 2.5-0.07 2.2 0.2 2.2 0.2 4.2 2.2h-13v-36z" fill="#2BB8AC"/><path transform="translate(485,704)" d="m0 0h46c-2 2-2 2-3.8 2.2-0.74-0.0044-1.5-0.0089-2.2-0.013-0.42-7.6e-5 -0.42-7.6e-5 -2.5-4.6e-4 -0.91-0.01-1.8-0.021-2.8-0.031-0.46-0.0014-0.46-0.0014-2.8-0.0086-3-0.011-6-0.036-8.9-0.062-2-0.01-4-0.019-6-0.027-4.9-0.022-9.9-0.057-15-0.098v4h-2c-1-3-1-3 0-6zm-3 4h2v5l-2-2v-3z" fill="#7C3AED"/><path transform="translate(330,692)" d="m0 0 3 2c0.26 3.2 0.26 3.2 0.12 6.9-0.21 6.8-0.21 6.8 0.88 10-0.82 1.8-0.82 1.8-2.1 3.7-0.42 0.62-0.83 1.2-1.3 1.9-1.6 1.4-1.6 1.4-4.3 1.6-0.77-0.068-1.5-0.14-2.3-0.21 0.43-0.7 0.87-1.4 1.3-2.1 4.6-8.2 5.4-15 4.7-24z" fill="#7C3AED"/><path transform="translate(299,694)" d="m0 0h1c0.037 0.72 0.075 1.4 0.11 2.2 0.49 7.2 1.9 12 5.9 18l-8-2-1-4-2-1c-0.41-2.3-0.74-4.7-1-7l2-1 2 3 1-8z" fill="#7C3AED"/><path transform="translate(684,692)" d="m0 0h1l1 35c5 0 5 0 7-1 3 0 3 0 5 1v2h-14v-37z" fill="#2BB8AC"/><path transform="translate(441,372)" d="m0 0 4 4-2.5 0.5c-4.2 1.8-6.5 4.3-9.6 7.6-2.1 2.1-4.3 3.4-6.9 4.9-1.7 1.6-3.4 3.3-5 5l-2-1c12-12 12-12 18-18 1.2-1 2.4-2.2 3.5-3.3z" fill="#7C3AED"/></svg>
